<svg width="168" height="168" viewBox="0 0 168 168" fill="none" xmlns="http://www.w3.org/2000/svg">
<rect width="168" height="168" fill="white"/>
<g clip-path="url(#clip0_21_29)">
<path d="M143 84.5C143 72.9298 139.569 61.6194 133.141 51.9992C126.713 42.3789 117.576 34.8808 106.887 30.4531C96.1975 26.0253 84.4351 24.8669 73.0872 27.1241C61.7393 29.3813 51.3156 34.9529 43.1342 43.1343C34.9529 51.3157 29.3813 61.7394 27.1241 73.0872C24.8668 84.4351 26.0253 96.1975 30.453 106.887C34.8808 117.576 42.3789 126.713 51.9991 133.141C61.6194 139.569 72.9298 143 84.5 143H85.3357C99.4266 143 111.919 138.371 119.673 131.242C126.922 125.796 132.805 118.737 136.853 110.624C140.902 102.511 143.007 93.5672 143 84.5V84.5ZM31.0143 84.5C31.0107 76.0672 33.0012 67.753 36.8232 60.236C40.6452 52.719 46.1905 46.2123 53.0065 41.2469C59.8224 36.2814 67.7159 32.998 76.0427 31.6646C84.3694 30.3312 92.8935 30.9855 100.919 33.5743C108.945 36.163 116.245 40.6127 122.223 46.5603C128.201 52.5079 132.688 59.7848 135.318 67.797C137.948 75.8093 138.646 84.3299 137.356 92.6634C136.065 100.997 132.822 108.907 127.892 115.748C127.935 115.233 127.957 114.724 127.957 114.208C127.957 100.248 113.285 88.6132 93.8019 85.9534C97.6372 83.717 100.622 80.2713 102.289 76.1562C103.956 72.0411 104.21 67.4894 103.012 63.2143C101.814 58.9392 99.231 55.1825 95.6685 52.5329C92.106 49.8833 87.7651 48.4906 83.3261 48.573C78.8871 48.6555 74.6009 50.2085 71.1393 52.9886C67.6777 55.7687 65.2363 59.6188 64.1979 63.9355C63.1595 68.2521 63.5826 72.7913 65.401 76.8416C67.2194 80.8919 70.3303 84.2244 74.2461 86.3168C56.0857 89.6233 42.7143 100.851 42.7143 114.172C42.7153 115.601 42.8712 117.027 43.1794 118.423C35.3057 108.872 31.0043 96.8777 31.0143 84.5V84.5ZM84.5 137.986C70.7825 137.991 57.591 132.707 47.6704 123.234C46.0847 120.475 45.2409 117.353 45.2214 114.172C45.2214 102.377 57.3429 91.9488 74.6967 88.7949L81.7966 87.5013L75.4161 84.1367C71.9869 82.3125 69.2596 79.4022 67.6618 75.8617C66.064 72.3213 65.6859 68.3508 66.5867 64.5724C67.4875 60.7941 69.6163 57.4213 72.6396 54.9826C75.6629 52.5438 79.4099 51.177 83.2933 51.0963C87.1767 51.0155 90.9773 52.2253 94.0993 54.5362C97.2214 56.8471 99.4886 60.1285 100.546 63.8662C101.603 67.6038 101.39 71.5866 99.9409 75.1904C98.4917 78.7942 95.8879 81.8154 92.5374 83.7806L86.3022 87.4141L93.4676 88.3952C111.991 90.9241 125.443 101.759 125.443 114.164C125.437 116.16 125.093 118.141 124.425 120.022C119.42 125.67 113.273 130.191 106.39 133.288C99.508 136.385 92.0469 137.986 84.5 137.986V137.986Z" fill="black"/>
</g>
<defs>
<clipPath id="clip0_21_29">
<rect width="117" height="117" fill="white" transform="translate(26 26)"/>
</clipPath>
</defs>
</svg>
