<svg width="168" height="168" viewBox="0 0 168 168" fill="none" xmlns="http://www.w3.org/2000/svg">
<rect width="168" height="168" fill="white"/>
<g clip-path="url(#clip0_21_23)">
<path d="M117.926 94.1856C117.926 83.7399 114.82 73.5288 109 64.8435C103.18 56.1582 94.9087 49.3889 85.231 45.3915C75.5533 41.3941 64.9042 40.3482 54.6304 42.3861C44.3566 44.4239 34.9195 49.454 27.5125 56.8402C20.1055 64.2264 15.0613 73.6371 13.0177 83.882C10.9741 94.127 12.0229 104.746 16.0316 114.397C20.0402 124.047 26.8286 132.296 35.5383 138.099C44.248 143.902 54.4879 147 64.963 147H65.7196C78.4761 147 89.7875 142.82 96.8088 136.384C103.372 131.468 108.697 125.095 112.362 117.77C116.027 110.446 117.932 102.371 117.926 94.1856ZM16.5397 94.1856C16.5317 86.5715 18.3295 79.0635 21.7862 72.2744C25.243 65.4853 30.2607 59.6076 36.4299 55.1211C42.599 50.6345 49.7447 47.6664 57.2835 46.4589C64.8224 45.2513 72.5408 45.8387 79.8086 48.1731C87.0764 50.5074 93.6876 54.5225 99.1026 59.8906C104.518 65.2587 108.583 71.8276 110.966 79.0612C113.35 86.2948 113.984 93.9879 112.818 101.513C111.651 109.037 108.717 116.18 104.254 122.358C104.254 121.898 104.307 121.438 104.307 120.97C104.307 108.37 91.0283 97.8675 73.3916 95.4607C76.8583 93.4328 79.5524 90.3153 81.0517 86.5968C82.551 82.8782 82.7708 78.7687 81.6766 74.9122C80.5824 71.0557 78.2361 67.6702 75.0054 65.2861C71.7746 62.9021 67.842 61.6542 63.8238 61.7381C59.8055 61.8219 55.9287 63.2328 52.8008 65.7496C49.6729 68.2664 47.4707 71.7468 46.5393 75.6456C45.6079 79.5444 46 83.6411 47.654 87.2939C49.308 90.9466 52.1306 93.9489 55.6793 95.8304C39.2381 98.8106 27.1323 108.943 27.1323 120.97C27.1319 122.262 27.274 123.55 27.556 124.81C20.4246 116.19 16.5291 105.361 16.5397 94.1856V94.1856ZM64.963 142.473C52.5442 142.477 40.6017 137.708 31.619 129.156C30.1859 126.663 29.4223 123.844 29.4021 120.97C29.4021 110.332 40.373 100.908 56.0879 98.0637L62.5191 96.8942L56.7461 93.831C53.6414 92.1837 51.1724 89.5557 49.7262 86.3589C48.28 83.1621 47.9382 79.5772 48.7545 76.166C49.5707 72.7547 51.4989 69.7099 54.2368 67.5087C56.9746 65.3075 60.3675 64.0743 63.8837 64.0024C67.3998 63.9305 70.8406 65.0239 73.6666 67.1113C76.4927 69.1988 78.5444 72.1622 79.5003 75.5372C80.4561 78.9122 80.262 82.5081 78.9484 85.7613C77.6349 89.0145 75.276 91.7412 72.2416 93.5141L66.5973 96.8263L73.089 97.7091C89.8631 99.9726 102.037 109.781 102.037 120.97C102.029 122.769 101.72 124.554 101.122 126.251C96.5876 131.351 91.0203 135.434 84.7874 138.23C78.5545 141.027 71.7976 142.473 64.963 142.473V142.473Z" fill="black"/>
<path d="M155 73.8144C155 63.3687 151.894 53.1576 146.074 44.4723C140.254 35.787 131.983 29.0177 122.305 25.0203C112.627 21.0229 101.978 19.977 91.7045 22.0148C81.4307 24.0527 71.9936 29.0828 64.5866 36.469C57.1796 43.8552 52.1353 53.2658 50.0917 63.5108C48.0482 73.7558 49.097 84.375 53.1056 94.0256C57.1143 103.676 63.9027 111.925 72.6124 117.728C81.3221 123.531 91.562 126.629 102.037 126.629H102.794C115.55 126.629 126.862 122.449 133.883 116.013C140.446 111.096 145.771 104.723 149.436 97.3991C153.101 90.0747 155.006 82 155 73.8144V73.8144ZM53.6138 73.8144C53.6058 66.2003 55.4035 58.6923 58.8603 51.9032C62.3171 45.1141 67.3348 39.2364 73.504 34.7498C79.6731 30.2633 86.8188 27.2951 94.3576 26.0876C101.896 24.8801 109.615 25.4675 116.883 27.8018C124.15 30.1362 130.762 34.1513 136.177 39.5194C141.592 44.8875 145.657 51.4564 148.04 58.69C150.424 65.9236 151.058 73.6167 149.892 81.1414C148.725 88.666 145.791 95.809 141.328 101.987C141.328 101.527 141.381 101.067 141.381 100.599C141.381 87.9988 128.102 77.4963 110.466 75.0895C113.932 73.0616 116.627 69.9441 118.126 66.2256C119.625 62.507 119.845 58.3975 118.751 54.541C117.657 50.6845 115.31 47.299 112.079 44.9149C108.849 42.5308 104.916 41.283 100.898 41.3668C96.8796 41.4507 93.0027 42.8616 89.8749 45.3784C86.747 47.8952 84.5448 51.3756 83.6134 55.2744C82.682 59.1732 83.0741 63.2699 84.7281 66.9226C86.3821 70.5754 89.2046 73.5777 92.7534 75.4592C76.3122 78.4394 64.2063 88.5722 64.2063 100.599C64.206 101.891 64.3481 103.178 64.6301 104.439C57.4987 95.8188 53.6032 84.9895 53.6138 73.8144V73.8144ZM102.037 122.102C89.6182 122.106 77.6757 117.336 68.6931 108.785C67.26 106.292 66.4964 103.472 66.4762 100.599C66.4762 89.9605 77.4471 80.5369 93.162 77.6925L99.5932 76.523L93.8202 73.4598C90.7154 71.8125 88.2465 69.1845 86.8003 65.9877C85.354 62.7909 85.0123 59.206 85.8285 55.7947C86.6448 52.3835 88.573 49.3387 91.3108 47.1375C94.0487 44.9363 97.4416 43.7031 100.958 43.6312C104.474 43.5593 107.915 44.6527 110.741 46.7401C113.567 48.8275 115.619 51.791 116.574 55.166C117.53 58.541 117.336 62.1369 116.023 65.3901C114.709 68.6433 112.35 71.37 109.316 73.1429L103.671 76.4551L110.163 77.3379C126.937 79.6013 139.111 89.4097 139.111 100.599C139.103 102.398 138.794 104.183 138.196 105.88C133.662 110.98 128.094 115.063 121.861 117.859C115.629 120.656 108.872 122.102 102.037 122.102V122.102Z" fill="black"/>
</g>
<defs>
<clipPath id="clip0_21_23">
<rect width="143" height="126" fill="white" transform="translate(12 21)"/>
</clipPath>
</defs>
</svg>
