<svg width="168" height="168" viewBox="0 0 168 168" fill="none" xmlns="http://www.w3.org/2000/svg">
<rect width="168" height="168" fill="white"/>
<g clip-path="url(#clip0_21_30)">
<path d="M148.978 26.4324H19.022C16.4842 26.4324 14.427 28.4943 14.427 31.0378V136.962C14.427 139.506 16.4842 141.568 19.022 141.568H148.978C151.516 141.568 153.573 139.506 153.573 136.962V31.0378C153.573 28.4943 151.516 26.4324 148.978 26.4324Z" stroke="black" stroke-width="6" stroke-miterlimit="10"/>
<path d="M59.7303 64.1351C63.0813 64.1351 65.7978 61.4125 65.7978 58.054C65.7978 54.6955 63.0813 51.9729 59.7303 51.9729C56.3794 51.9729 53.6629 54.6955 53.6629 58.054C53.6629 61.4125 56.3794 64.1351 59.7303 64.1351Z" fill="black"/>
<path d="M142.093 81.5595L139.974 84.0081L108.658 56.7081L84.2589 81.1622L99.298 96.2351L97.0166 98.5216L81.9775 83.4486L69.778 71.2216L32.1357 107.465L29.8867 105.13L67.4885 68.927L69.8103 66.6811L81.9775 78.8757L108.504 52.2892L110.947 54.4135L142.093 81.5595Z" fill="black"/>
</g>
<defs>
<clipPath id="clip0_21_30">
<rect width="144" height="120" fill="white" transform="translate(12 24)"/>
</clipPath>
</defs>
</svg>
